<?xml version="1.0" encoding="UTF-8"?>
<svg width="240" height="60" viewBox="0 0 240 60" version="1.1" xmlns="http://www.w3.org/2000/svg" xmlns:xlink="http://www.w3.org/1999/xlink" role="img" aria-label="CodeQuest Logo">
    <!-- Main Logo Container -->
    <title>CodeQuest - Gamified Developer Productivity Platform</title>
    <desc>CodeQuest platform logo in light theme</desc>
    
    <!-- Code Symbol -->
    <g id="code-symbol" fill="#1976D2">
        <path d="M30 15c-8.28 0-15 6.72-15 15s6.72 15 15 15 15-6.72 15-15-6.72-15-15-15zm-3.75 22.5l-7.5-7.5 7.5-7.5 2.25 2.25-5.25 5.25 5.25 5.25-2.25 2.25zm7.5 0l-2.25-2.25 5.25-5.25-5.25-5.25 2.25-2.25 7.5 7.5-7.5 7.5z"/>
    </g>
    
    <!-- Quest Symbol -->
    <g id="quest-symbol" fill="#424242">
        <path d="M75 20l-5 5v10l5 5h10l5-5V25l-5-5H75zm10 15H75V25h10v10z"/>
        <circle cx="80" cy="30" r="2.5"/>
    </g>
    
    <!-- Text Elements -->
    <g id="logo-text" fill="#424242">
        <!-- Code Text -->
        <path d="M110 40h-2.5V20h2.5v20zm7.5 0h-2.5V20h2.5v20zm7.5 0h-2.5V20h2.5v20z"/>
        <!-- Quest Text -->
        <path d="M140 40h-2.5V20h15c1.38 0 2.5 1.12 2.5 2.5v15c0 1.38-1.12 2.5-2.5 2.5h-12.5zm12.5-17.5h-12.5v15h12.5v-15z"/>
        <path d="M170 40h-2.5V20h15c1.38 0 2.5 1.12 2.5 2.5v15c0 1.38-1.12 2.5-2.5 2.5h-12.5zm12.5-17.5h-12.5v15h12.5v-15z"/>
        <path d="M200 40h-2.5V20h15v2.5h-12.5v15h12.5v2.5h-12.5z"/>
        <path d="M230 40h-2.5V20h2.5v20z"/>
    </g>
    
    <!-- Decorative Elements -->
    <g id="decorative-elements" fill="#1976D2" fill-opacity="0.1">
        <circle cx="30" cy="30" r="25"/>
        <rect x="65" y="15" width="30" height="30" rx="5"/>
    </g>
</svg>